{
	"asset":{
		"generator":"Khronos glTF Blender I/O v3.6.27",
		"version":"2.0"
	},
	"scene":0,
	"scenes":[
		{
			"name":"Scene",
			"nodes":[
				29
			]
		}
	],
	"nodes":[
		{
			"name":"pinky-finger-tip",
			"rotation":[
				-0.7025396823883057,
				-0.025951672345399857,
				0.19083409011363983,
				0.6850889921188354
			],
			"scale":[
				0.9999998807907104,
				0.9999999403953552,
				1
			],
			"translation":[
				-0.05193101242184639,
				-0.021761668846011162,
				-0.1379069834947586
			]
		},
		{
			"name":"pinky-finger-phalanx-distal",
			"rotation":[
				-0.7018183469772339,
				-0.02011408470571041,
				0.19386297464370728,
				0.6851741671562195
			],
			"scale":[
				1,
				0.9999999403953552,
				0.9999999403953552
			],
			"translation":[
				-0.04895484447479248,
				-0.02097189985215664,
				-0.12640319764614105
			]
		},
		{
			"name":"pinky-finger-phalanx-intermediate",
			"rotation":[
				-0.7184361219406128,
				0.014237961731851101,
				0.23154395818710327,
				0.655769944190979
			],
			"scale":[
				0.9999999403953552,
				1,
				1
			],
			"translation":[
				-0.042367447167634964,
				-0.018117262050509453,
				-0.10740294307470322
			]
		},
		{
			"name":"pinky-finger-phalanx-proximal",
			"rotation":[
				-0.7356152534484863,
				0.005406460724771023,
				0.17717967927455902,
				0.6537953019142151
			],
			"translation":[
				-0.03505406528711319,
				-0.013691188767552376,
				-0.07389583438634872
			]
		},
		{
			"name":"pinky-finger-metacarpal",
			"rotation":[
				-0.697102427482605,
				-0.042197730392217636,
				0.25204476714134216,
				0.6698813438415527
			],
			"scale":[
				0.9999999403953552,
				0.9999998807907104,
				0.9999998807907104
			],
			"translation":[
				-0.022998567670583725,
				-0.009419836103916168,
				-0.03407355397939682
			]
		},
		{
			"name":"ring-finger-tip",
			"rotation":[
				-0.7179067730903625,
				0.005398610141128302,
				0.12701740860939026,
				0.6844320893287659
			],
			"translation":[
				-0.03552267327904701,
				-0.014942222274839878,
				-0.16357210278511047
			]
		},
		{
			"name":"ring-finger-phalanx-distal",
			"rotation":[
				-0.7198993563652039,
				0.009468413889408112,
				0.1409226506948471,
				0.6795558333396912
			],
			"scale":[
				0.9999999403953552,
				1,
				1.0000001192092896
			],
			"translation":[
				-0.03319218009710312,
				-0.014168625697493553,
				-0.1518879234790802
			]
		},
		{
			"name":"ring-finger-phalanx-intermediate",
			"rotation":[
				-0.7340457439422607,
				0.03151770308613777,
				0.1547553390264511,
				0.6604803800582886
			],
			"scale":[
				0.9999999403953552,
				1,
				1
			],
			"translation":[
				-0.026761077344417572,
				-0.010884808376431465,
				-0.1263144314289093
			]
		},
		{
			"name":"ring-finger-phalanx-proximal",
			"rotation":[
				-0.7350928783416748,
				0.04746411368250847,
				0.12426810711622238,
				0.664788007736206
			],
			"scale":[
				1,
				1,
				0.9999999403953552
			],
			"translation":[
				-0.017465239390730858,
				-0.0065293097868561745,
				-0.0846937820315361
			]
		},
		{
			"name":"ring-finger-metacarpal",
			"rotation":[
				-0.7838623523712158,
				-0.02485472522675991,
				0.15120051801204681,
				0.6017313003540039
			],
			"scale":[
				1,
				0.9999999403953552,
				0.9999998807907104
			],
			"translation":[
				-0.008265812881290913,
				-0.009419835172593594,
				-0.026990525424480438
			]
		},
		{
			"name":"middle-finger-tip",
			"rotation":[
				-0.671607255935669,
				0.012548189610242844,
				0.08411361277103424,
				0.7360102534294128
			],
			"translation":[
				-0.007302367594093084,
				-0.008763391524553299,
				-0.17740771174430847
			]
		},
		{
			"name":"middle-finger-phalanx-distal",
			"rotation":[
				-0.6702033281326294,
				0.026790140196681023,
				0.09296408295631409,
				0.7358447313308716
			],
			"translation":[
				-0.005685921758413315,
				-0.009792778640985489,
				-0.1653556227684021
			]
		},
		{
			"name":"middle-finger-phalanx-intermediate",
			"rotation":[
				-0.7390991449356079,
				0.023780860006809235,
				0.050430696457624435,
				0.6712851524353027
			],
			"scale":[
				1,
				0.9999999403953552,
				0.9999998807907104
			],
			"translation":[
				-0.002640286460518837,
				-0.007021447643637657,
				-0.1381155103445053
			]
		},
		{
			"name":"middle-finger-phalanx-proximal",
			"rotation":[
				-0.7411647439002991,
				0.02567698061466217,
				0.03742710128426552,
				0.6697871088981628
			],
			"scale":[
				0.9999999403953552,
				1,
				0.9999999403953552
			],
			"translation":[
				0.0017259035957977176,
				-0.0025431548710912466,
				-0.09164661914110184
			]
		},
		{
			"name":"middle-finger-metacarpal",
			"rotation":[
				-0.7822577953338623,
				-0.04780179262161255,
				0.03330967575311661,
				0.6202242970466614
			],
			"scale":[
				0.9999999403953552,
				1,
				1.0000001192092896
			],
			"translation":[
				0.003259145887568593,
				-0.009419834241271019,
				-0.029106346890330315
			]
		},
		{
			"name":"index-finger-tip",
			"rotation":[
				-0.6860068440437317,
				0.03191281482577324,
				0.04023914039134979,
				0.7257802486419678
			],
			"scale":[
				0.9999999403953552,
				1,
				1
			],
			"translation":[
				0.01942507177591324,
				-0.012159137055277824,
				-0.16941747069358826
			]
		},
		{
			"name":"index-finger-phalanx-distal",
			"rotation":[
				-0.6893147826194763,
				0.03728675842285156,
				0.04143289104104042,
				0.7223144769668579
			],
			"scale":[
				0.9999999403953552,
				0.9999999403953552,
				1
			],
			"translation":[
				0.02069161832332611,
				-0.01276903785765171,
				-0.15792004764080048
			]
		},
		{
			"name":"index-finger-phalanx-intermediate",
			"rotation":[
				-0.7378429770469666,
				0.0233281422406435,
				0.017481863498687744,
				0.6743426322937012
			],
			"scale":[
				1,
				0.9999999403953552,
				0.9999998807907104
			],
			"translation":[
				0.022021938115358353,
				-0.010550453327596188,
				-0.13375447690486908
			]
		},
		{
			"name":"index-finger-phalanx-proximal",
			"rotation":[
				-0.7353142499923706,
				0.0346059612929821,
				-0.00889187678694725,
				0.6767838597297668
			],
			"scale":[
				0.9999999403953552,
				1,
				0.9999999403953552
			],
			"translation":[
				0.02355068363249302,
				-0.007316450122743845,
				-0.09199623763561249
			]
		},
		{
			"name":"index-finger-metacarpal",
			"rotation":[
				-0.7737962007522583,
				-0.06092741712927818,
				-0.07604813575744629,
				0.6258944869041443
			],
			"translation":[
				0.015884488821029663,
				-0.009419833309948444,
				-0.029212743043899536
			]
		},
		{
			"name":"thumb-tip",
			"rotation":[
				-0.3910849690437317,
				0.0967891663312912,
				-0.7220975756645203,
				0.5623695850372314
			],
			"scale":[
				0.9999999403953552,
				0.9999999403953552,
				0.9999999403953552
			],
			"translation":[
				0.07789859920740128,
				-0.04891209676861763,
				-0.09167806804180145
			]
		},
		{
			"name":"thumb-phalanx-distal",
			"rotation":[
				-0.3913572132587433,
				0.09222295135259628,
				-0.7193922996520996,
				0.5664001107215881
			],
			"translation":[
				0.06691259145736694,
				-0.04371181130409241,
				-0.08312329649925232
			]
		},
		{
			"name":"thumb-phalanx-proximal",
			"rotation":[
				-0.47661566734313965,
				0.11579832434654236,
				-0.6371734738349915,
				0.5945068001747131
			],
			"translation":[
				0.04495571553707123,
				-0.034307628870010376,
				-0.05921866372227669
			]
		},
		{
			"name":"thumb-metacarpal",
			"rotation":[
				-0.47604361176490784,
				0.18330155313014984,
				-0.7034937143325806,
				0.4948531687259674
			],
			"scale":[
				1.0000001192092896,
				1.0000001192092896,
				1.0000001192092896
			],
			"translation":[
				0.028028499335050583,
				-0.019157709553837776,
				-0.0359584279358387
			]
		},
		{
			"name":"wrist",
			"rotation":[
				-0.70710688829422,
				-5.677788905700254e-08,
				5.67778783988615e-08,
				0.7071066498756409
			]
		},
		{
			"mesh":0,
			"name":"Skeleton.001",
			"skin":0
		},
		{
			"name":"xr_standard_trigger_pressed_max"
		},
		{
			"name":"xr_standard_trigger_pressed_min"
		},
		{
			"name":"xr_standard_trigger_pressed_value"
		},
		{
			"children":[
				25,
				26,
				27,
				28,
				0,
				1,
				2,
				3,
				4,
				5,
				6,
				7,
				8,
				9,
				10,
				11,
				12,
				13,
				14,
				15,
				16,
				17,
				18,
				19,
				20,
				21,
				22,
				23,
				24
			],
			"name":"Armature.001"
		}
	],
	"meshes":[
		{
			"name":"Skeleton.002",
			"primitives":[
				{
					"attributes":{
						"POSITION":0,
						"NORMAL":1,
						"TEXCOORD_0":2,
						"TANGENT":3,
						"JOINTS_0":4,
						"WEIGHTS_0":5
					},
					"indices":6
				}
			]
		}
	],
	"skins":[
		{
			"inverseBindMatrices":7,
			"joints":[
				0,
				1,
				2,
				3,
				4,
				5,
				6,
				7,
				8,
				9,
				10,
				11,
				12,
				13,
				14,
				15,
				16,
				17,
				18,
				19,
				20,
				21,
				22,
				23,
				24
			],
			"name":"Armature.001"
		}
	],
	"accessors":[
		{
			"bufferView":0,
			"componentType":5126,
			"count":577,
			"max":[
				0.08148222416639328,
				0.012778084725141525,
				0.009196911938488483
			],
			"min":[
				-0.05452645570039749,
				-0.05472283437848091,
				-0.17845936119556427
			],
			"type":"VEC3"
		},
		{
			"bufferView":1,
			"componentType":5126,
			"count":577,
			"type":"VEC3"
		},
		{
			"bufferView":2,
			"componentType":5126,
			"count":577,
			"type":"VEC2"
		},
		{
			"bufferView":3,
			"componentType":5126,
			"count":577,
			"type":"VEC4"
		},
		{
			"bufferView":4,
			"componentType":5121,
			"count":577,
			"type":"VEC4"
		},
		{
			"bufferView":5,
			"componentType":5126,
			"count":577,
			"type":"VEC4"
		},
		{
			"bufferView":6,
			"componentType":5123,
			"count":2520,
			"type":"SCALAR"
		},
		{
			"bufferView":7,
			"componentType":5126,
			"count":25,
			"type":"MAT4"
		}
	],
	"bufferViews":[
		{
			"buffer":0,
			"byteLength":6924,
			"byteOffset":0,
			"target":34962
		},
		{
			"buffer":0,
			"byteLength":6924,
			"byteOffset":6924,
			"target":34962
		},
		{
			"buffer":0,
			"byteLength":4616,
			"byteOffset":13848,
			"target":34962
		},
		{
			"buffer":0,
			"byteLength":9232,
			"byteOffset":18464,
			"target":34962
		},
		{
			"buffer":0,
			"byteLength":2308,
			"byteOffset":27696,
			"target":34962
		},
		{
			"buffer":0,
			"byteLength":9232,
			"byteOffset":30004,
			"target":34962
		},
		{
			"buffer":0,
			"byteLength":5040,
			"byteOffset":39236,
			"target":34963
		},
		{
			"buffer":0,
			"byteLength":1600,
			"byteOffset":44276
		}
	],
	"buffers":[
		{
			"byteLength":45876,
			"uri":"data:application/octet-stream;base64,"
		}
	]
}
